<?xml version="1.0" encoding="utf-8"?>
<!-- Generator: Adobe Illustrator 26.3.1, SVG Export Plug-In . SVG Version: 6.00 Build 0)  -->
<svg version="1.1" id="Capa_1" xmlns="http://www.w3.org/2000/svg" xmlns:xlink="http://www.w3.org/1999/xlink" x="0px" y="0px"
	 viewBox="0 0 490 490" style="enable-background:new 0 0 490 490;" xml:space="preserve">
<path d="M340.8,15H149.2c-52.9,0.1-95.8,42.9-95.8,95.8v268.3c0.1,52.9,42.9,95.8,95.8,95.8h191.7c52.9-0.1,95.8-42.9,95.8-95.8
	V110.8C436.6,57.9,393.7,15.1,340.8,15z M149.2,53.3h191.7c31.8,0,57.5,25.7,57.5,57.5v115H91.7v-115
	C91.7,79.1,117.4,53.3,149.2,53.3z M340.8,436.7H149.2c-31.8,0-57.5-25.7-57.5-57.5v-115h306.7v115
	C398.3,410.9,372.6,436.7,340.8,436.7z"/>
<path d="M225.8,149.2h38.3c10.6,0,19.2-8.6,19.2-19.2s-8.6-19.2-19.2-19.2h-38.3c-10.6,0-19.2,8.6-19.2,19.2
	S215.2,149.2,225.8,149.2z"/>
<path d="M264.2,340.8h-38.3c-10.6,0-19.2,8.6-19.2,19.2s8.6,19.2,19.2,19.2h38.3c10.6,0,19.2-8.6,19.2-19.2S274.8,340.8,264.2,340.8
	z"/>
</svg>
